<svg xmlns="http://www.w3.org/2000/svg" viewBox="0 0 48 48" fill="none">
  <!-- Brain outline -->
  <path d="M24 6C16 6 10 12 10 19c0 4 2 7.5 5 10l1 1v6a2 2 0 002 2h12a2 2 0 002-2v-6l1-1c3-2.5 5-6 5-10 0-7-6-13-14-13z" fill="#D4915E" opacity="0.15" stroke="#D4915E" stroke-width="2" stroke-linejoin="round"/>
  <!-- Neural connections -->
  <circle cx="20" cy="17" r="2" fill="#D4915E"/>
  <circle cx="28" cy="17" r="2" fill="#e0a472"/>
  <circle cx="24" cy="23" r="2" fill="#D4915E"/>
  <circle cx="18" cy="25" r="1.5" fill="#e0a472"/>
  <circle cx="30" cy="25" r="1.5" fill="#D4915E"/>
  <line x1="20" y1="17" x2="24" y2="23" stroke="#D4915E" stroke-width="1.2" opacity="0.6"/>
  <line x1="28" y1="17" x2="24" y2="23" stroke="#e0a472" stroke-width="1.2" opacity="0.6"/>
  <line x1="24" y1="23" x2="18" y2="25" stroke="#D4915E" stroke-width="1.2" opacity="0.6"/>
  <line x1="24" y1="23" x2="30" y2="25" stroke="#e0a472" stroke-width="1.2" opacity="0.6"/>
  <line x1="20" y1="17" x2="28" y2="17" stroke="#D4915E" stroke-width="1" opacity="0.3"/>
  <!-- Sparkle/bolt — represents AI power -->
  <path d="M36 8l-2 4h3l-3 5" stroke="#d4b476" stroke-width="1.5" stroke-linecap="round" stroke-linejoin="round" fill="none"/>
</svg>
